<svg height="412.867" viewBox="0 0 361.837 412.867" width="361.837" xmlns="http://www.w3.org/2000/svg" xmlns:xlink="http://www.w3.org/1999/xlink"><linearGradient id="a" gradientUnits="userSpaceOnUse" x1="136.23" x2="446.23" y1="114.373" y2="476.373"><stop offset="0" stop-color="#030a24"/><stop offset=".577" stop-color="#352acf"/></linearGradient><path d="m0 0h361.837v412.867h-361.837z" fill="#030a24"/><path d="m104.91 412.867c-16.7-20.35-12.832-50.776 7.725-66.06 20.03-14.894 49.372-10.55 64.476 10.172a36.637 36.637 0 0 1 10.822-17.2c13.37-11.724 30.634-8.608 32.965-8.147-3.745-6.528-14.455-27.146-10.431-54.022a83.124 83.124 0 0 1 16.421-38.29c-19.187-22.422-24.339-51.987-13.06-75.049 8.639-17.665 24.2-25.958 30.593-28.907-16.564-36.868-3.676-79.506 27.858-99.236 26.865-16.808 63.068-14.366 89.558 6.63v370.109z" fill="url(#a)"/></svg>